PathFileType	4	(X/Y/Z)	/Users/itak/Documents/Research/Walk-IL/dataset/trc/00262_00009.trc
DataRate	CameraRate	NumFrames	NumMarkers	Units	OrigDataRate	OrigDataStartFrame	OrigNumFrames
100.000000	100.000000	4	53	mm	100.000000	365	418
Frame#	Time	RPSI			LPSI			L3			STRN			T10			C7			CLAV			RBAK			LBAK			LSHO			LUPA			LAEL			LAOL			LWTS			LWPS			LFRA			LIFD			LHPS			LHTS			RSHO			RUPA			RAEL			RAOL			RWTS			RWPS			RFRA			RIFD			RHTS			RHPS			RBHD			LFHD			RFHD			LBHD			LHIP			RHIP			RASI			LASI			LKNE			LTHI			LANK			LTIP			LTOE			LMT1			LMT5			LHEE			RKNE			RTHI			RANK			RTIP			RTOE			RMT1			RMT5			RHEE			
		X1	Y1	Z1	X2	Y2	Z2	X3	Y3	Z3	X4	Y4	Z4	X5	Y5	Z5	X6	Y6	Z6	X7	Y7	Z7	X8	Y8	Z8	X9	Y9	Z9	X10	Y10	Z10	X11	Y11	Z11	X12	Y12	Z12	X13	Y13	Z13	X14	Y14	Z14	X15	Y15	Z15	X16	Y16	Z16	X17	Y17	Z17	X18	Y18	Z18	X19	Y19	Z19	X20	Y20	Z20	X21	Y21	Z21	X22	Y22	Z22	X23	Y23	Z23	X24	Y24	Z24	X25	Y25	Z25	X26	Y26	Z26	X27	Y27	Z27	X28	Y28	Z28	X29	Y29	Z29	X30	Y30	Z30	X31	Y31	Z31	X32	Y32	Z32	X33	Y33	Z33	X34	Y34	Z34	X35	Y35	Z35	X36	Y36	Z36	X37	Y37	Z37	X38	Y38	Z38	X39	Y39	Z39	X40	Y40	Z40	X41	Y41	Z41	X42	Y42	Z42	X43	Y43	Z43	X44	Y44	Z44	X45	Y45	Z45	X46	Y46	Z46	X47	Y47	Z47	X48	Y48	Z48	X49	Y49	Z49	X50	Y50	Z50	X51	Y51	Z51	X52	Y52	Z52	X53	Y53	Z53	

366	3.65	67.28074645996094	1037.994140625	-373.1270446777344	-52.50823211669922	1044.169921875	-382.384033203125	-12.64551544189453	1119.605590820312	-370.6360473632812	3.498008251190186	1319.6083984375	-610.7182006835938	-7.249518871307373	1245.194458007812	-361.5880432128906	-10.8569507598877	1510.017944335938	-409.1549987792969	3.716069221496582	1435.25048828125	-578.2464599609375	57.14699935913086	1365.722534179688	-337.30419921875	-120.6795425415039	1470.70556640625	-398.982177734375	-171.1571655273438	1476.939819335938	-491.160400390625	-252.4053344726562	1357.835083007812	-468.647705078125	-280.1539916992188	1148.702270507812	-482.2498779296875	-231.6372375488281	1130.7236328125	-410.7781066894531	-225.0923614501953	915.8471069335938	-579.4065551757812	-306.7289428710938	902.0368041992188	-556.0252075195312	-297.1741943359375	1042.48486328125	-506.8892822265625	-240.476806640625	720.999755859375	-577.50244140625	-303.9524230957031	813.11083984375	-571.1272583007812	-248.8159790039062	814.5558471679688	-610.9134521484375	162.6963653564453	1473.498046875	-454.81591796875	227.2021179199219	1407.089477539062	-434.9436340332031	272.4280395507812	1126.505615234375	-439.3082580566406	181.3822174072266	1116.090576171875	-414.3741760253906	239.1486663818359	930.3833618164062	-604.6979370117188	300.9574584960938	910.097900390625	-551.7432250976562	287.3505554199219	1061.837036132812	-474.0266723632812	230.1521148681641	743.498779296875	-636.9635620117188	257.7435302734375	815.068359375	-658.7708740234375	305.6487426757812	808.4530639648438	-604.4175415039062	41.03784942626953	1663.214965820312	-433.0470275878906	-32.00510787963867	1730.8359375	-637.4605102539062	67.66071319580078	1727.981201171875	-626.4672241210938	-86.33159637451172	1677.888671875	-491.2145080566406	-200.096435546875	993.2581176757812	-476.2947387695312	180.9132690429688	1003.304931640625	-465.0897827148438	148.0966339111328	1048.892333984375	-561.9027709960938	-132.0957336425781	1030.197998046875	-589.7752685546875	-139.0781402587891	501.4098815917969	-532.9060668945312	-167.1258697509766	644.9784545898438	-530.1780395507812	-128.7098388671875	44.60134506225586	-361.287353515625	-143.9050598144531	285.6304016113281	-443.2028503417969	-80.20503997802734	39.71799087524414	-577.196533203125	-36.51457595825195	37.47945785522461	-508.5101623535156	-149.2312774658203	35.92534637451172	-487.1348571777344	-75.51919555664062	55.58052062988281	-301.3004760742188	131.1305541992188	513.9659423828125	-541.528564453125	185.2720031738281	779.759033203125	-538.7039184570312	88.15623474121094	32.75193786621094	-463.0191040039062	109.0326538085938	393.8903503417969	-550.4481811523438	49.5603141784668	40.18496704101562	-677.2684326171875	5.511296272277832	38.41323852539062	-621.723876953125	116.0053405761719	34.41095733642578	-571.3843994140625	26.27268409729004	33.53926086425781	-402.8216552734375	
367	3.66	68.38560485839844	1038.133544921875	-373.6108093261719	-51.45915985107422	1044.270385742188	-382.8014831542969	-11.43237209320068	1119.773681640625	-371.1687927246094	4.422907829284668	1319.421264648438	-611.65673828125	-6.016983032226562	1245.4150390625	-362.2530822753906	-9.629815101623535	1510.150268554688	-410.3670959472656	4.600600242614746	1435.093139648438	-579.3831176757812	58.60429000854492	1366.016479492188	-338.2953796386719	-119.4520568847656	1470.850341796875	-399.9570922851562	-170.064208984375	1476.941650390625	-492.0349426269531	-251.2642822265625	1357.828125	-469.1241760253906	-279.0617980957031	1148.67626953125	-482.0817260742188	-230.1701507568359	1130.912475585938	-410.8016052246094	-225.0842895507812	915.2749633789062	-578.478515625	-306.4267578125	901.7161865234375	-554.4148559570312	-296.2749328613281	1042.426147460938	-506.18408203125	-240.5947265625	720.4724731445312	-575.3594970703125	-303.9554748535156	812.699462890625	-569.0791625976562	-249.0201721191406	813.84912109375	-609.2376708984375	163.8359375	1473.564331054688	-456.2634887695312	228.4234771728516	1407.243286132812	-436.4334716796875	273.9101867675781	1126.672729492188	-440.672607421875	182.9525299072266	1116.233032226562	-415.3450622558594	239.9193420410156	930.486572265625	-605.7960815429688	301.966064453125	910.1978149414062	-553.1566162109375	288.7113647460938	1061.967407226562	-475.4143676757812	230.6574859619141	743.613525390625	-638.0313720703125	258.1845397949219	815.1641845703125	-659.9871215820312	306.3899841308594	808.543701171875	-605.8478393554688	42.1592903137207	1663.216796875	-434.3294372558594	-31.00282096862793	1730.759887695312	-638.7470703125	68.68548583984375	1727.910766601562	-627.8110961914062	-85.18506622314453	1677.886840820312	-492.4254150390625	-200.0578155517578	993.5878295898438	-475.56103515625	181.9467163085938	1003.264038085938	-465.5699462890625	149.1036071777344	1048.704467773438	-562.392578125	-131.1373138427734	1030.038452148438	-590.135009765625	-138.9100646972656	501.2862243652344	-535.8160400390625	-166.5544738769531	644.8598022460938	-531.9929809570312	-128.6358947753906	45.20175933837891	-361.4729614257812	-143.753662109375	285.8641052246094	-445.0133666992188	-80.59923553466797	39.81578826904297	-577.3674926757812	-36.58245086669922	37.707275390625	-508.73876953125	-149.2972869873047	36.02303695678711	-487.3118286132812	-75.36486053466797	56.42890548706055	-301.5924987792969	131.9033355712891	513.82861328125	-541.181884765625	186.0809173583984	779.6121826171875	-538.9448852539062	88.20703887939453	32.71258544921875	-463.0075073242188	109.5803909301758	393.81103515625	-550.158447265625	49.55620956420898	40.20784759521484	-677.2183837890625	5.501801013946533	38.40388107299805	-621.6822509765625	116.0565338134766	34.45346450805664	-571.4474487304688	26.35591125488281	33.51829528808594	-402.7657775878906	
368	3.67	69.48680114746094	1038.2861328125	-374.0699157714844	-50.42783355712891	1044.388916015625	-383.1871032714844	-10.20890331268311	1119.946533203125	-371.6400146484375	5.309728622436523	1319.249145507812	-612.5606689453125	-4.820777416229248	1245.641357421875	-362.9132385253906	-8.428592681884766	1510.289916992188	-411.5437622070312	5.450796127319336	1434.948486328125	-580.4793701171875	60.01178741455078	1366.312255859375	-339.2773742675781	-118.2666778564453	1471.002807617188	-400.8939208984375	-169.0064086914062	1476.949584960938	-492.8596801757812	-250.111083984375	1357.847290039062	-469.5428771972656	-278.0381164550781	1148.681274414062	-481.9435424804688	-228.8051300048828	1131.096923828125	-410.835693359375	-225.0317077636719	914.8355102539062	-577.7086791992188	-306.0888061523438	901.45751953125	-553.0040893554688	-295.4192504882812	1042.41064453125	-505.5472106933594	-240.5723419189453	720.0797119140625	-573.618408203125	-303.8628234863281	812.388916015625	-567.3426513671875	-249.091552734375	813.3113403320312	-607.8375854492188	164.9400329589844	1473.6337890625	-457.6875	229.6175231933594	1407.399047851562	-437.9001159667969	275.3339233398438	1126.8369140625	-442.0017395019531	184.4753265380859	1116.382080078125	-416.2761840820312	240.6610412597656	930.5000610351562	-606.7632446289062	302.9617919921875	910.2603149414062	-554.4264526367188	290.0167541503906	1062.09326171875	-476.7453002929688	231.1945648193359	743.6236572265625	-638.8347778320312	258.6238098144531	815.134765625	-660.9973754882812	307.1361999511719	808.5614013671875	-607.0703125	43.26358795166016	1663.227416992188	-435.5819091796875	-30.03093338012695	1730.69287109375	-639.995849609375	69.67945098876953	1727.844848632812	-629.1287841796875	-84.07761383056641	1677.899780273438	-493.5957946777344	-199.8960113525391	993.8525390625	-474.9246215820312	182.9561767578125	1003.222412109375	-466.0460815429688	150.0659332275391	1048.506958007812	-562.8490600585938	-130.1974182128906	1029.895874023438	-590.439453125	-138.7874145507812	501.1921691894531	-538.700439453125	-166.0619506835938	644.7767333984375	-533.8200073242188	-128.5524139404297	45.83734893798828	-361.6638793945312	-143.6307067871094	286.1451416015625	-446.8104248046875	-81.08103942871094	39.9367790222168	-577.5505981445312	-36.69290161132812	37.97512817382812	-509.0022583007812	-149.4087219238281	36.13518142700195	-487.4950256347656	-75.22655487060547	57.32511901855469	-301.9134521484375	132.6211700439453	513.6967163085938	-540.822998046875	186.7626342773438	779.4710693359375	-539.2352294921875	88.24292755126953	32.68493270874023	-462.9945373535156	110.1085357666016	393.7458801269531	-549.8685913085938	49.54898071289062	40.23061370849609	-677.1715087890625	5.492194175720215	38.39309692382812	-621.6425170898438	116.102912902832	34.51224517822266	-571.5225830078125	26.42416954040527	33.49137496948242	-402.7140502929688	
369	3.68	70.57778167724609	1038.451904296875	-374.5122680664062	-49.40445327758789	1044.527587890625	-383.5396118164062	-9.000154495239258	1120.127319335938	-372.0757446289062	6.159792900085449	1319.094604492188	-613.4305419921875	-3.662962198257446	1245.871948242188	-363.568603515625	-7.255504608154297	1510.436645507812	-412.6837463378906	6.273720741271973	1434.8212890625	-581.5349731445312	61.36590194702148	1366.60888671875	-340.2554016113281	-117.1209564208984	1471.162353515625	-401.7929992675781	-167.9830322265625	1476.963256835938	-493.6383972167969	-248.9502563476562	1357.892211914062	-469.9119567871094	-277.084228515625	1148.71728515625	-481.8233642578125	-227.5267181396484	1131.275756835938	-410.8730163574219	-224.9247131347656	914.5281982421875	-577.1005249023438	-305.7138366699219	901.2620849609375	-551.7993774414062	-294.6277770996094	1042.432495117188	-504.9711608886719	-240.4325714111328	719.8121948242188	-572.270263671875	-303.6946716308594	812.1769409179688	-565.9175415039062	-249.0424041748047	812.9319458007812	-606.7124633789062	166.0051879882812	1473.711547851562	-459.0910339355469	230.7802734375	1407.557861328125	-439.3449096679688	276.6844482421875	1126.999267578125	-443.2897033691406	185.9298400878906	1116.540283203125	-417.1772155761719	241.3802490234375	930.4273681640625	-607.6032104492188	303.93994140625	910.287353515625	-555.5460815429688	291.2560119628906	1062.216430664062	-478.0119934082031	231.7749176025391	743.5358276367188	-639.3744506835938	259.0777587890625	814.9859008789062	-661.79833984375	307.8874206542969	808.5066528320312	-608.0752563476562	44.34337997436523	1663.24609375	-436.8010864257812	-29.09122657775879	1730.63720703125	-641.2027587890625	70.63745880126953	1727.782836914062	-630.4136962890625	-83.01578521728516	1677.927368164062	-494.7242431640625	-199.6186676025391	994.073974609375	-474.3760681152344	183.9439544677734	1003.179809570312	-466.518798828125	150.9944458007812	1048.308227539062	-563.2841796875	-129.2694244384766	1029.774047851562	-590.693603515625	-138.6968994140625	501.1272583007812	-541.5408935546875	-165.6213073730469	644.7340087890625	-535.6421508789062	-128.4585723876953	46.50312805175781	-361.8563232421875	-143.5318756103516	286.4765930175781	-448.5769958496094	-81.65716552734375	40.09030151367188	-577.7379150390625	-36.86240005493164	38.2857780456543	-509.3048706054688	-149.5544281005859	36.26421737670898	-487.6755065917969	-75.10458374023438	58.25428771972656	-302.2620849609375	133.2787933349609	513.5745849609375	-540.4476928710938	187.3623962402344	779.3360595703125	-539.5324096679688	88.26434326171875	32.66683197021484	-462.9798583984375	110.6063537597656	393.6868896484375	-549.5739135742188	49.5370979309082	40.25198364257812	-677.1288452148438	5.483216762542725	38.38089370727539	-621.6051635742188	116.1400909423828	34.57795333862305	-571.5980834960938	26.47333335876465	33.46012115478516	-402.6682434082031	
